<svg width="70" height="70" viewBox="0 0 85 85" fill="none" xmlns="http://www.w3.org/2000/svg">
<path fill-rule="evenodd" clip-rule="evenodd" d="M0 32V16C0 11.5817 1.5621 7.81048 4.68629 4.68629C7.81048 1.5621 11.5817 0 16 0H69C73.4183 0 77.1895 1.5621 80.3137 4.68629C83.4379 7.81048 85 11.5817 85 16V69C85 73.4183 83.4379 77.1895 80.3137 80.3137C77.1895 83.4379 73.4183 85 69 85H16C11.5817 85 7.81048 83.4379 4.68629 80.3137C1.5621 77.1895 0 73.4183 0 69V32Z" fill="#B4B4B4"/>
<path fill-rule="evenodd" clip-rule="evenodd" d="M29.155 56.4751H13.724C13.1783 56.4751 12.736 56.0327 12.736 55.4871C12.736 54.9414 13.1783 54.499 13.724 54.499H29.155C29.7007 54.499 30.143 54.9414 30.143 55.4871C30.143 56.0327 29.7007 56.4751 29.155 56.4751Z" fill="#B3BDCC"/>
<path fill-rule="evenodd" clip-rule="evenodd" d="M12.288 61.0562C11.9749 61.0557 11.6804 60.907 11.4941 60.6553C11.3079 60.4036 11.2518 60.0786 11.343 59.7791L15.583 45.9341C15.6821 45.5913 15.9582 45.3286 16.3054 45.2468C16.6527 45.165 17.0171 45.2766 17.2588 45.5391C17.5005 45.8013 17.582 46.1738 17.472 46.5132L13.232 60.3582C13.1047 60.7727 12.7218 61.0559 12.288 61.0562Z" fill="#B59385"/>
<path fill-rule="evenodd" clip-rule="evenodd" d="M30.557 61.0552C30.1227 61.0547 29.7396 60.7705 29.613 60.355L25.373 46.51C25.2232 45.9917 25.5168 45.4492 26.0326 45.291C26.5484 45.1331 27.0956 45.418 27.262 45.9312L31.501 59.7771C31.5922 60.0767 31.5361 60.4016 31.3499 60.6533C31.1636 60.905 30.8691 61.0537 30.556 61.0542L30.557 61.0552Z" fill="#B59385"/>
<path fill-rule="evenodd" clip-rule="evenodd" d="M16.511 38.9001L15.511 27.4641C15.3456 25.5842 13.7712 24.1421 11.884 24.1421H10.953C10.3618 24.1423 9.79791 24.3909 9.39865 24.8267C8.99937 25.2627 8.80142 25.8462 8.853 26.4351L10.244 42.2712C10.5369 45.6099 13.3326 48.1709 16.684 48.1711H30.154C31.2762 48.1711 32.186 47.2612 32.186 46.1392V45.6392C32.186 43.4128 30.3813 41.6082 28.155 41.6082H19.465C17.9272 41.6077 16.6448 40.4321 16.511 38.9001Z" fill="#78D7A8"/>
<path fill-rule="evenodd" clip-rule="evenodd" d="M11.238 24.1411H10.953C10.3618 24.1414 9.79791 24.3899 9.39865 24.8257C8.99937 25.2617 8.80142 25.8452 8.853 26.4341L10.244 42.2712C10.5369 45.6099 13.3326 48.1709 16.684 48.1711H25.101C13.674 46.3721 12.609 42.5122 11.238 24.1411Z" fill="#69BF96"/>
<path fill-rule="evenodd" clip-rule="evenodd" d="M71.405 56.4751H55.974C55.4283 56.4751 54.986 56.0327 54.986 55.4871C54.986 54.9414 55.4283 54.499 55.974 54.499H71.405C71.9507 54.499 72.393 54.9414 72.393 55.4871C72.393 56.0327 71.9507 56.4751 71.405 56.4751Z" fill="#B3BDCC"/>
<path fill-rule="evenodd" clip-rule="evenodd" d="M72.841 61.0552C72.4066 61.0547 72.0235 60.7705 71.8969 60.355L67.657 46.51C67.507 45.9917 67.8007 45.449 68.3165 45.291C68.8324 45.1328 69.3798 45.4177 69.546 45.9312L73.786 59.7771C73.8772 60.0767 73.8211 60.4016 73.6348 60.6533C73.4486 60.905 73.1541 61.0537 72.841 61.0542V61.0552Z" fill="#B59385"/>
<path fill-rule="evenodd" clip-rule="evenodd" d="M54.572 61.0562C54.2589 61.0557 53.9644 60.907 53.7781 60.6553C53.5919 60.4036 53.5358 60.0786 53.627 59.7791L57.867 45.9341C58.0332 45.4207 58.5806 45.1357 59.0965 45.2939C59.6123 45.4519 59.9059 45.9946 59.756 46.5132L55.516 60.3582C55.3887 60.7727 55.0058 61.0559 54.572 61.0562Z" fill="#B59385"/>
<path fill-rule="evenodd" clip-rule="evenodd" d="M68.617 38.9001L69.617 27.4641C69.7823 25.5842 71.3568 24.1421 73.244 24.1421H74.172C74.7632 24.1423 75.3271 24.3909 75.7264 24.8267C76.1256 25.2627 76.3236 25.8462 76.272 26.4351L74.882 42.2722C74.5891 45.6108 71.7935 48.1719 68.442 48.1721H54.972C53.8498 48.1721 52.94 47.2625 52.94 46.1401L52.94 45.6401C52.94 43.4138 54.7448 41.6091 56.971 41.6091H65.659C67.1987 41.6108 68.4836 40.4341 68.617 38.9001Z" fill="#799EE5"/>
<path fill-rule="evenodd" clip-rule="evenodd" d="M69.101 33.3821L68.617 38.9001C68.4827 40.4319 67.1998 41.6072 65.662 41.6069H56.974C54.7478 41.6069 52.943 43.4119 52.943 45.6382V46.1382C52.943 47.2603 53.8528 48.1702 54.975 48.1699L68.447 48.1702C70.4738 48.1709 72.3835 47.2205 73.605 45.603C70.996 43.9631 69.553 39.179 69.101 33.3821Z" fill="#6E8FD1"/>
<rect x="40.03" y="35.4421" width="5.068" height="20.563" fill="#B3BDCC"/>
<rect x="40.03" y="35.4421" width="5.068" height="4.422" fill="#A8B2BF"/>
<path fill-rule="evenodd" clip-rule="evenodd" d="M46.746 56.0042H38.387C37.1822 56.0044 36.1296 56.8181 35.826 57.9841L35.587 58.9021C35.5142 59.1809 35.5747 59.4778 35.7508 59.7058C35.927 59.9338 36.1989 60.0671 36.487 60.0671H48.649C48.9371 60.0671 49.209 59.9338 49.3851 59.7058C49.5613 59.4778 49.6218 59.1809 49.549 58.9021L49.31 57.9841C49.0064 56.8169 47.952 56.0027 46.746 56.0042Z" fill="#414C59"/>
<path fill-rule="evenodd" clip-rule="evenodd" d="M56.485 30.9302H28.646C26.946 30.9302 25.4803 32.125 25.138 33.7903C25.0547 34.1948 25.1579 34.6152 25.4188 34.9355C25.6798 35.2556 26.071 35.4414 26.484 35.4412H58.646C59.059 35.4414 59.4502 35.2556 59.7112 34.9355C59.9721 34.6152 60.0753 34.1948 59.992 33.7903H59.992C59.6498 32.1255 58.1846 30.9307 56.485 30.9302H56.485Z" fill="#F4E08F"/>
<path fill-rule="evenodd" clip-rule="evenodd" d="M46.986 35.4412C44.326 34.2583 43.697 32.1411 44.049 30.9302H28.646C26.946 30.9302 25.4803 32.125 25.138 33.7903C25.0547 34.1948 25.1579 34.6152 25.4189 34.9355C25.6798 35.2556 26.071 35.4414 26.484 35.4412H46.986Z" fill="#EBCE72"/>
</svg>
