<svg width="34" height="30" viewBox="0 0 34 30" fill="none" xmlns="http://www.w3.org/2000/svg">
<path fill-rule="evenodd" clip-rule="evenodd" d="M17.202 29.584C16.7373 29.584 16.2885 29.4152 15.939 29.109C14.619 27.955 13.346 26.87 12.223 25.909H12.217C9.31235 23.5928 6.59921 21.0463 4.10397 18.2939C2.09053 16.1229 0.938187 13.292 0.863007 10.332C0.818985 7.76349 1.74445 5.27264 3.45497 3.35602C5.13409 1.52661 7.50888 0.493042 9.992 0.510986C11.8547 0.502869 13.6649 1.12769 15.126 2.28296C15.9183 2.90253 16.6174 3.63263 17.202 4.45099C17.7867 3.63269 18.4858 2.90259 19.278 2.28302C20.7394 1.1275 22.55 0.502686 24.413 0.510986C26.8961 0.493164 29.2708 1.52667 30.95 3.35596C32.6606 5.27258 33.5861 7.76343 33.542 10.332C33.4667 13.2917 32.3143 16.1223 30.301 18.293C27.8059 21.0463 25.0928 23.5939 22.188 25.911C21.063 26.869 19.788 27.956 18.465 29.111C18.1153 29.4167 17.6665 29.5851 17.202 29.585V29.584ZM9.992 2.42499C8.04422 2.41003 6.18102 3.21979 4.86301 4.65399C3.47887 6.21729 2.73413 8.24445 2.77701 10.332C2.85028 12.8464 3.84706 15.2458 5.57703 17.072C8.00427 19.737 10.6396 22.2048 13.458 24.452L13.464 24.452C14.591 25.413 15.864 26.502 17.199 27.664C18.537 26.499 19.817 25.408 20.946 24.446C23.764 22.199 26.399 19.7316 28.826 17.067C30.5559 15.2408 31.5526 12.8414 31.626 10.327C31.6689 8.23944 30.9241 6.21228 29.54 4.64899C28.2216 3.21716 26.3593 2.4093 24.413 2.42499C22.9744 2.41998 21.5767 2.90375 20.449 3.797C19.5626 4.50677 18.8139 5.37311 18.24 6.35297C18.0222 6.71887 17.6278 6.94305 17.202 6.94305C16.7762 6.94305 16.3818 6.71887 16.164 6.35297C15.5903 5.37299 14.8415 4.50665 13.955 3.797C12.8276 2.90393 11.4303 2.42017 9.992 2.42499Z" fill="black"/>
</svg>
