<svg width="20" height="20" viewBox="0 0 30 30" fill="none" xmlns="http://www.w3.org/2000/svg">
<path fill-rule="evenodd" clip-rule="evenodd" d="M28.626 13.752C28.3278 13.7506 28.0414 13.8681 27.8301 14.0785C27.6188 14.2889 27.5 14.5748 27.5 14.8729C27.4982 19.9865 24.4187 24.5913 19.6977 26.5445C14.9766 28.4977 9.54388 27.4144 5.93301 23.7999C2.32213 20.1854 1.24434 14.7515 3.20227 10.0325C5.1602 5.31338 9.7682 2.23856 14.8773 2.24194C15.2779 2.2413 15.6477 2.02698 15.8474 1.67969C16.0471 1.33243 16.0462 0.904968 15.8452 0.558472C15.6443 0.211945 15.2736 -0.000976562 14.873 -6.10352e-05C6.65903 0.000457764 0.00062561 6.65955 0.000976562 14.8735C0.00131226 23.0876 6.66028 29.7461 14.8743 29.7459C23.0883 29.7458 29.747 23.087 29.747 14.8729C29.747 14.2538 29.2451 13.752 28.626 13.752Z" fill="black"/>
<path fill-rule="evenodd" clip-rule="evenodd" d="M28.895 4.06696C28.4572 3.62939 27.7477 3.62939 27.3099 4.06696L13.86 17.481L9.00696 12.2109C8.58745 11.7556 7.87834 11.7265 7.42284 12.1458C6.96733 12.5651 6.93781 13.2742 7.35689 13.7299L13 19.858C13.2064 20.0821 13.4953 20.2125 13.8 20.2189H13.824C14.1205 20.2188 14.4049 20.1012 14.615 19.8919L28.895 5.65195C29.3325 5.2142 29.3325 4.50467 28.895 4.06696Z" fill="black"/>
</svg>
