<svg width="42" height="26" viewBox="0 0 45 29" fill="none" xmlns="http://www.w3.org/2000/svg">
<path fill-rule="evenodd" clip-rule="evenodd" d="M38.52 12.676C40.3022 11.4277 41.0691 9.16773 40.4146 7.09247C39.7601 5.01727 37.8355 3.6062 35.6595 3.6062C33.4835 3.6062 31.5588 5.01727 30.9044 7.09247C30.2499 9.16773 31.0167 11.4277 32.799 12.676C31.7114 13.0502 30.7095 13.6376 29.8521 14.4041C28.6713 13.3981 27.2941 12.6489 25.808 12.204C28.2352 10.7377 29.3878 7.83344 28.6267 5.10169C27.8656 2.36993 25.3773 0.480164 22.5415 0.480103C19.7057 0.480103 17.2174 2.36987 16.4563 5.10169C15.6952 7.83344 16.8478 10.7376 19.275 12.204C17.8074 12.6503 16.4463 13.3914 15.275 14.382C14.4238 13.6332 13.4347 13.0578 12.363 12.688C14.1453 11.4396 14.9121 9.17969 14.2576 7.10449C13.6031 5.0293 11.6785 3.61816 9.50244 3.61816C7.32654 3.61816 5.40186 5.0293 4.74744 7.10449C4.0929 9.17969 4.85974 11.4396 6.64197 12.688C3.11536 13.9053 0.747925 17.2242 0.744995 20.955V21.525C0.745972 21.5439 0.761108 21.559 0.780029 21.5601H11.345C11.281 22.0444 11.2476 22.5324 11.245 23.0211V23.609C11.245 26.1495 13.3044 28.209 15.845 28.209H29.245C31.7855 28.209 33.845 26.1495 33.845 23.609V23.023C33.8424 22.5345 33.8091 22.0466 33.745 21.5622L44.3879 21.562C44.4069 21.561 44.422 21.5459 44.423 21.527V20.957C44.4148 17.2228 42.0474 13.9017 38.52 12.676ZM32.056 8.58801C32.056 6.61011 33.6528 5.00238 35.6315 4.98883C37.61 4.97534 39.2286 6.56116 39.2556 8.53961C39.2827 10.5181 37.708 12.1475 35.7297 12.188L35.5909 12.188C33.6278 12.1531 32.0547 10.5515 32.0551 8.58801H32.056ZM17.589 6.78802C17.589 4.09869 19.7411 1.90479 22.4292 1.85315C25.1173 1.80151 27.3521 3.91113 27.4553 6.59772C27.5586 9.2843 25.4923 11.5592 22.8082 11.714H22.239C19.6309 11.5602 17.593 9.40277 17.588 6.79004L17.589 6.78802ZM5.87 8.58801C5.87 6.61011 7.4668 5.00238 9.44543 4.98883C11.424 4.97534 13.0426 6.56116 13.0697 8.53961C13.0967 10.5181 11.522 12.1475 9.5437 12.188L9.40405 12.188C7.44165 12.152 5.86963 10.5508 5.87 8.58801ZM11.5909 20.168H2.14502C2.54578 16.4418 5.67444 13.6069 9.422 13.574H9.52197C11.25 13.5834 12.9188 14.2048 14.2321 15.328C12.9672 16.6997 12.0601 18.3621 11.5909 20.168ZM32.444 23.608C32.4412 25.3826 31.0034 26.8203 29.2289 26.823H15.829C14.0546 26.8203 12.6167 25.3825 12.614 23.608V23.023C12.6199 17.6638 16.8776 13.2769 22.2336 13.111C22.333 13.12 22.433 13.12 22.527 13.12C22.621 13.12 22.7271 13.12 22.821 13.111C28.1791 13.2747 32.4395 17.6625 32.4449 23.023L32.444 23.608ZM33.472 20.168C33.0052 18.3762 32.106 16.7263 30.853 15.363C32.1741 14.2203 33.8593 13.586 35.606 13.574H35.7061C39.4536 13.6068 42.5822 16.4418 42.983 20.168H33.472Z" fill="black"/>
</svg>
